<svg data-v-710754a4="" viewBox="0 0 1036 121" xmlns="http://www.w3.org/2000/svg" class="fill-current w-48 mx-auto"><g fill-rule="evenodd"><path d="M77.463 0v47.137H24.07V0H0v120h24.07V69.625h53.393V120h24.24V0zM169.896 0v120h79.103V97.872h-55.306V69.987h54.132v-21.95h-54.132V21.95h55.306V0zM317.19 0v120h67.803V97.51h-45.096V0zM586.46 120h22.602V0H586.46zM489.15 98.23c8.78 0 13.983-5.577 13.983-14.211 0-7.559-4.878-14.034-13.984-14.034h-29.754V98.23h29.754zm-.814-50.015c7.805 0 12.683-5.577 12.683-13.313 0-7.375-4.878-13.132-12.683-13.132h-28.941v26.445h28.941zM436.306 0h57.071c20.65 0 31.218 14.571 31.218 30.584 0 15.113-8.455 25.188-18.698 27.527 11.545 1.979 20.812 14.393 20.812 29.504 0 17.992-10.895 32.385-31.543 32.385h-58.86V0zM677.253 99.31l58.667-78.261h-58.667V0h90.404v16.873L705.362 99.31h62.295V120h-90.404zM857.812 120.234c-32.538 0-58.812-24.36-58.812-60.204S825.274 0 857.812 0c19.14 0 33.06 7.656 43.674 19.836l-7.482 5.394c-8.178-9.744-21.402-16.182-36.192-16.182-27.318 0-48.372 20.706-48.372 50.982 0 29.928 21.054 51.156 48.372 51.156 15.486 0 27.666-7.656 34.104-14.094v-27.84h-43.848v-8.874h53.766v40.542c-10.266 11.484-25.752 19.314-44.022 19.314zm121.45-.174c-34.105 0-56.377-26.1-56.377-60.03S945.157 0 979.261 0c33.93 0 56.376 26.1 56.376 60.03s-22.446 60.03-56.376 60.03zm0-9.048c27.84 0 45.935-21.75 45.935-50.982 0-29.58-18.096-50.982-45.936-50.982-28.188 0-45.936 21.402-45.936 50.982 0 29.232 17.748 50.982 45.936 50.982z"></path></g></svg>
