<svg data-v-710754a4="" viewBox="0 0 1132 121" xmlns="http://www.w3.org/2000/svg" class="fill-current w-48 mx-auto"><g fill-rule="evenodd"><path d="M77.463 0v47.137H24.07V0H0v120h24.07V69.625h53.393V120h24.24V0zM170 0v120h79.103V97.872h-55.306V69.987h54.133v-21.95h-54.133V21.95h55.306V0zM317 0v120h67.803V97.51h-45.096V0zM586 120h22.6V0H586zM488.844 98.23c8.78 0 13.984-5.577 13.984-14.211 0-7.559-4.878-14.034-13.984-14.034H459.09V98.23h29.754zm-.813-50.015c7.805 0 12.683-5.577 12.683-13.313 0-7.375-4.878-13.132-12.683-13.132H459.09v26.445h28.941zM436 0h57.072c20.65 0 31.218 14.571 31.218 30.584 0 15.113-8.456 25.188-18.698 27.527 11.545 1.979 20.811 14.393 20.811 29.504 0 17.992-10.894 32.385-31.543 32.385H436V0zM677 99.31l58.667-78.261H677V0h90.403v16.873L705.11 99.31h62.294V120H677zM849.4 120.06H799V0h49.32c20.16 0 33.12 11.7 33.12 30.6 0 15.12-10.26 25.38-21.06 27.54 12.78 1.98 23.4 15.3 23.4 29.52 0 19.98-12.96 32.4-34.38 32.4zm-2.34-66.24c15.48 0 23.58-9.72 23.58-22.14 0-12.24-8.1-22.32-23.58-22.32h-37.8v44.46h37.8zm.72 56.88c15.84 0 25.2-9.18 25.2-23.76 0-12.24-8.46-23.76-25.2-23.76h-38.52v47.52h38.52zm72.177 9.36h-10.26V0h10.26v120.06zm116.278 0h-13.14l-49.5-56.52-13.32 14.58v41.94h-10.26V0h10.26v65.7l57.96-65.7h13.14l-51.12 57.24 55.98 62.82zm95.577 0h-76.14V0h76.14v9.36h-65.88v44.46h64.62v9.36h-64.62v47.52h65.88v9.36z"></path></g></svg>
