<svg viewBox="0 0 164 54" xmlns="http://www.w3.org/2000/svg" class="w-32 sm:w-40"><g fill="none" fill-rule="evenodd"><path d="M164 46.702c0 4.03-3.245 7.298-7.248 7.298H7.25C3.246 54 0 50.732 0 46.702V7.297C0 3.267 3.246 0 7.25 0h149.502C160.755 0 164 3.268 164 7.297v39.405z" fill="#000"></path> <g fill="#FFF"><path d="M37.368 27.146c-.042-4.71 3.839-7.002 4.016-7.11-2.198-3.219-5.604-3.659-6.801-3.694-2.862-.302-5.637 1.72-7.094 1.72-1.487 0-3.731-1.69-6.15-1.64-3.113.047-6.025 1.858-7.622 4.67-3.296 5.734-.838 14.16 2.32 18.794 1.58 2.27 3.426 4.804 5.842 4.715 2.363-.098 3.246-1.514 6.098-1.514 2.827 0 3.656 1.514 6.12 1.457 2.536-.04 4.134-2.28 5.658-4.57 1.825-2.602 2.558-5.164 2.588-5.295-.06-.02-4.927-1.887-4.975-7.533zM32.713 13.293c1.272-1.597 2.142-3.77 1.9-5.976-1.84.082-4.141 1.279-5.466 2.841-1.172 1.377-2.22 3.634-1.95 5.756 2.068.155 4.19-1.048 5.516-2.62z"></path></g> <g fill="#FFF"><path d="M63.233 36.505h-2.776l-1.52-4.778h-5.285l-1.449 4.778h-2.702l5.236-16.265h3.234l5.262 16.265zm-4.755-6.782l-1.375-4.247c-.145-.434-.418-1.456-.82-3.065h-.049c-.16.692-.418 1.714-.772 3.065l-1.35 4.247h4.366zM76.698 30.496c0 1.995-.539 3.572-1.617 4.73-.966 1.03-2.165 1.544-3.596 1.544-1.545 0-2.654-.555-3.33-1.665h-.05v6.179H65.5V28.637c0-1.254-.033-2.54-.097-3.86h2.292l.146 1.858h.048c.87-1.4 2.188-2.1 3.958-2.1 1.384 0 2.539.547 3.463 1.64.926 1.096 1.388 2.536 1.388 4.321zm-2.655.096c0-1.142-.256-2.083-.772-2.824-.564-.772-1.32-1.158-2.269-1.158-.642 0-1.227.215-1.749.639a2.965 2.965 0 00-1.025 1.678c-.08.323-.121.587-.121.795v1.955c0 .853.262 1.573.785 2.161.523.588 1.202.881 2.038.881.982 0 1.746-.379 2.292-1.134.548-.757.821-1.754.821-2.993zM90.188 30.496c0 1.995-.54 3.572-1.619 4.73-.964 1.03-2.163 1.544-3.594 1.544-1.545 0-2.655-.555-3.33-1.665h-.048v6.179H78.99V28.637c0-1.254-.033-2.54-.097-3.86h2.292l.145 1.858h.05c.867-1.4 2.186-2.1 3.957-2.1 1.382 0 2.537.547 3.464 1.64.922 1.096 1.386 2.536 1.386 4.321zm-2.655.096c0-1.142-.258-2.083-.774-2.824-.563-.772-1.317-1.158-2.267-1.158-.644 0-1.227.215-1.75.639-.523.428-.864.986-1.024 1.678-.08.323-.121.587-.121.795v1.955c0 .853.261 1.573.782 2.161.523.587 1.203.881 2.041.881.981 0 1.745-.379 2.292-1.134.547-.757.821-1.754.821-2.993z" fill-rule="nonzero"></path> <path d="M105.27 31.944c0 1.383-.48 2.509-1.445 3.378-1.06.95-2.535 1.424-4.43 1.424-1.75 0-3.154-.338-4.216-1.014l.604-2.171a7.143 7.143 0 003.767 1.038c.981 0 1.745-.222 2.294-.664.546-.443.819-1.037.819-1.778 0-.66-.225-1.216-.676-1.667-.449-.45-1.198-.87-2.244-1.257-2.848-1.062-4.27-2.618-4.27-4.664 0-1.337.498-2.434 1.497-3.287.995-.854 2.322-1.28 3.982-1.28 1.48 0 2.71.257 3.69.772l-.65 2.124c-.917-.499-1.954-.748-3.114-.748-.916 0-1.632.226-2.146.676a1.931 1.931 0 00-.651 1.473c0 .642.248 1.174.747 1.592.433.386 1.222.804 2.366 1.255 1.4.564 2.427 1.223 3.088 1.978.66.753.988 1.695.988 2.82zM113.885 26.732h-2.872v5.694c0 1.449.506 2.172 1.52 2.172.466 0 .852-.04 1.158-.12l.072 1.978c-.513.192-1.19.288-2.026.288-1.03 0-1.834-.314-2.414-.94-.578-.629-.87-1.682-.87-3.163V26.73h-1.71v-1.956h1.71v-2.147l2.56-.773v2.92h2.872v1.958z"></path> <path d="M126.845 30.544c0 1.803-.516 3.283-1.545 4.44-1.08 1.192-2.512 1.786-4.298 1.786-1.72 0-3.09-.57-4.112-1.712-1.022-1.142-1.533-2.583-1.533-4.32 0-1.817.525-3.306 1.58-4.463 1.053-1.159 2.473-1.738 4.258-1.738 1.721 0 3.106.57 4.151 1.713 1 1.109 1.499 2.54 1.499 4.294zm-2.704.084c0-1.081-.231-2.009-.7-2.783-.545-.936-1.326-1.403-2.338-1.403-1.048 0-1.844.468-2.39 1.403-.468.775-.699 1.718-.699 2.832 0 1.082.231 2.01.7 2.782.563.936 1.35 1.403 2.365 1.403.995 0 1.776-.476 2.34-1.427.48-.789.722-1.726.722-2.807z" fill-rule="nonzero"></path> <path d="M135.315 27.068a4.525 4.525 0 00-.822-.072c-.916 0-1.625.346-2.124 1.039-.434.611-.651 1.383-.651 2.316v6.154h-2.605l.024-8.035c0-1.352-.033-2.583-.097-3.692h2.27l.095 2.244h.072c.275-.772.709-1.392 1.303-1.858.58-.42 1.207-.628 1.883-.628.24 0 .458.017.652.047v2.485z"></path> <path d="M146.968 30.086c0 .467-.03.86-.095 1.182h-7.817c.03 1.158.408 2.044 1.134 2.656.659.546 1.51.82 2.557.82 1.157 0 2.213-.185 3.163-.555l.408 1.809c-1.11.484-2.42.724-3.932.724-1.818 0-3.246-.535-4.285-1.604-1.036-1.07-1.556-2.506-1.556-4.307 0-1.769.483-3.242 1.45-4.416 1.012-1.254 2.38-1.881 4.1-1.881 1.69 0 2.97.627 3.84 1.88.688.997 1.033 2.229 1.033 3.692zm-2.484-.676c.017-.773-.153-1.44-.506-2.003-.451-.725-1.144-1.087-2.077-1.087-.852 0-1.545.353-2.074 1.062-.434.564-.692 1.24-.771 2.027h5.428z" fill-rule="nonzero"></path></g> <g fill="#FFF"><path d="M53.135 13.007c0 .883-.24 1.547-.723 1.993-.446.412-1.08.618-1.902.618-.407 0-.756-.02-1.048-.058v-4.823c.38-.068.79-.102 1.234-.102.783 0 1.372.186 1.77.56.446.422.67 1.026.67 1.812zm-.755.022c0-.573-.138-1.011-.414-1.317-.276-.306-.68-.459-1.21-.459a2.77 2.77 0 00-.578.051v3.667c.089.015.25.022.484.022.549 0 .972-.167 1.27-.502.298-.334.448-.822.448-1.462zM57.14 13.778c0 .544-.141.989-.424 1.339-.297.359-.69.538-1.18.538-.474 0-.85-.172-1.131-.517-.28-.344-.42-.778-.42-1.302 0-.547.144-.996.433-1.345.29-.349.68-.524 1.17-.524.474 0 .854.172 1.142.516.273.335.41.767.41 1.295zm-.743.025c0-.326-.064-.606-.192-.839-.15-.282-.364-.423-.642-.423-.288 0-.507.141-.657.423-.129.233-.192.518-.192.853 0 .327.064.607.192.84.155.282.371.423.65.423.273 0 .488-.143.642-.43a1.71 1.71 0 00.2-.847z" fill-rule="nonzero"></path> <path d="M62.51 12.04l-1.008 3.535h-.656l-.418-1.536a12.42 12.42 0 01-.259-1.142h-.013a9.038 9.038 0 01-.259 1.142l-.444 1.536h-.663l-.948-3.536h.736l.364 1.681c.088.397.16.776.219 1.135h.013c.053-.296.141-.672.266-1.128l.457-1.687h.584l.438 1.651c.106.403.192.791.258 1.164h.02c.049-.363.122-.751.219-1.164l.39-1.651h.704zM66.224 15.575h-.716V13.55c0-.624-.216-.936-.65-.936a.624.624 0 00-.517.257.968.968 0 00-.2.606v2.097h-.715v-2.525c0-.31-.01-.647-.026-1.011h.63l.033.552h.02a1.132 1.132 0 011.02-.626c.3.001.55.107.75.321.247.262.37.653.37 1.172v2.118zM68.2 15.575h-.716v-5.158h.715z"></path> <path d="M72.417 13.778c0 .544-.142.989-.425 1.339-.296.359-.69.538-1.18.538-.474 0-.85-.172-1.13-.517-.28-.344-.421-.778-.421-1.302 0-.547.144-.996.434-1.345.29-.349.68-.524 1.17-.524.473 0 .853.172 1.141.516.273.335.41.767.41 1.295zm-.744.025c0-.326-.064-.606-.192-.839-.15-.282-.364-.423-.642-.423-.288 0-.507.141-.657.423-.128.233-.192.518-.192.853 0 .327.065.607.192.84.156.282.372.423.65.423.274 0 .488-.143.642-.43.134-.238.2-.52.2-.847zM75.884 15.575h-.643l-.054-.407h-.02c-.22.324-.533.487-.94.487a.929.929 0 01-.736-.32 1.06 1.06 0 01-.253-.72c0-.432.165-.761.495-.99.33-.227.793-.34 1.39-.334v-.066c0-.466-.224-.698-.67-.698-.318 0-.598.088-.84.262l-.146-.516c.3-.204.67-.306 1.106-.306.842 0 1.264.488 1.264 1.463v1.302c0 .353.016.634.047.843zm-.744-1.215v-.545c-.79-.016-1.185.222-1.185.712 0 .184.045.322.137.415.093.092.21.138.35.138a.683.683 0 00.438-.164.678.678 0 00.26-.556zM79.954 15.575h-.635l-.034-.568h-.02c-.203.432-.549.648-1.035.648-.388 0-.711-.167-.967-.502-.257-.334-.385-.769-.385-1.302 0-.572.14-1.036.418-1.39.27-.33.6-.494.995-.494.432 0 .735.16.907.48h.014v-2.03h.717v4.205c0 .345.008.662.025.953zm-.742-1.491v-.59c0-.102-.007-.184-.02-.247a.915.915 0 00-.259-.476.669.669 0 00-.48-.193.717.717 0 00-.63.35c-.152.232-.229.53-.229.894 0 .35.073.633.22.851.155.233.364.349.626.349a.668.668 0 00.566-.291c.138-.18.206-.395.206-.647zM86.08 13.778c0 .544-.14.989-.424 1.339-.296.359-.689.538-1.18.538-.472 0-.849-.172-1.13-.517-.28-.344-.421-.778-.421-1.302 0-.547.144-.996.434-1.345.29-.349.68-.524 1.17-.524.473 0 .854.172 1.141.516.274.335.41.767.41 1.295zm-.741.025c0-.326-.065-.606-.192-.839-.152-.282-.365-.423-.644-.423-.287 0-.506.141-.657.423-.128.233-.192.518-.192.853 0 .327.065.607.192.84.156.282.372.423.65.423.274 0 .49-.143.644-.43.132-.238.199-.52.199-.847z" fill-rule="nonzero"></path> <path d="M89.933 15.575h-.716V13.55c0-.624-.216-.936-.65-.936a.622.622 0 00-.517.257.964.964 0 00-.199.606v2.097h-.717v-2.525c0-.31-.008-.647-.025-1.011h.629l.033.552h.02a1.134 1.134 0 011.021-.626c.3.001.55.107.75.321.248.262.37.653.37 1.172v2.118zM94.754 12.628h-.79v1.718c0 .436.141.654.419.654.128 0 .235-.012.319-.036l.018.596a1.479 1.479 0 01-.556.088c-.283 0-.503-.095-.663-.284-.16-.189-.239-.507-.239-.953v-1.783h-.47v-.589h.47v-.648l.702-.232v.88h.789v.589zM98.546 15.575h-.717v-2.01c0-.634-.216-.951-.649-.951-.332 0-.559.183-.683.551a1.078 1.078 0 00-.034.283v2.126h-.715v-5.157h.715v2.13h.014c.226-.387.549-.58.968-.58.296 0 .542.106.737.32.242.266.364.662.364 1.185v2.103z"></path> <path d="M102.458 13.64c0 .14-.01.26-.027.356h-2.148c.01.35.112.616.31.8.183.165.417.248.704.248.318 0 .608-.056.87-.168l.111.547c-.305.145-.665.218-1.081.218-.5 0-.892-.162-1.177-.484-.285-.322-.427-.755-.427-1.298 0-.533.132-.977.398-1.331a1.325 1.325 0 011.127-.568c.463 0 .815.19 1.053.567.192.3.287.672.287 1.113zm-.684-.204a1.14 1.14 0 00-.138-.603.613.613 0 00-.57-.328c-.234 0-.425.106-.57.32a1.26 1.26 0 00-.213.611h1.491z" fill-rule="nonzero"></path></g></g></svg>
