<svg viewBox="0 0 165 54" xmlns="http://www.w3.org/2000/svg" class="w-32 sm:w-40"><defs><linearGradient id="google-1-a" x1="91.49%" y1="4.96%" x2="-38.317%" y2="71.909%"><stop stop-color="#00A0FF" offset="0%"></stop> <stop stop-color="#00A1FF" offset=".66%"></stop> <stop stop-color="#00BEFF" offset="26.01%"></stop> <stop stop-color="#00D2FF" offset="51.22%"></stop> <stop stop-color="#00DFFF" offset="76.04%"></stop> <stop stop-color="#00E3FF" offset="100%"></stop></linearGradient> <linearGradient id="google-1-b" x1="107.586%" y1="50.016%" x2="-130.492%" y2="50.016%"><stop stop-color="#FFE000" offset="0%"></stop> <stop stop-color="#FFBD00" offset="40.87%"></stop> <stop stop-color="orange" offset="77.54%"></stop> <stop stop-color="#FF9C00" offset="100%"></stop></linearGradient> <linearGradient id="google-1-c" x1="86.238%" y1="117.851%" x2="-50.131%" y2="294.785%"><stop stop-color="#FF3A44" offset="0%"></stop> <stop stop-color="#C31162" offset="100%"></stop></linearGradient> <linearGradient id="google-1-d" x1="-18.801%" y1="-154.171%" x2="42.094%" y2="-75.137%"><stop stop-color="#32A071" offset="0%"></stop> <stop stop-color="#2DA771" offset="6.85%"></stop> <stop stop-color="#15CF74" offset="47.62%"></stop> <stop stop-color="#06E775" offset="80.09%"></stop> <stop stop-color="#00F076" offset="100%"></stop></linearGradient></defs> <g fill="none" fill-rule="evenodd"><path d="M157.976 54H6.12C2.781 54 .046 50.96.046 47.25V6.75C.046 3.04 2.781 0 6.12 0h151.856c3.34 0 6.075 3.04 6.075 6.75v40.5c0 3.71-2.735 6.75-6.075 6.75z" fill="#000"></path> <path d="M58.626 15.683c0 .989-.298 1.78-.886 2.371-.675.7-1.555 1.052-2.632 1.052-1.03 0-1.91-.358-2.632-1.064-.723-.716-1.083-1.595-1.083-2.648 0-1.052.36-1.931 1.083-2.642.722-.711 1.602-1.07 2.632-1.07a3.77 3.77 0 011.468.3c.465.198.844.464 1.118.793l-.623.624c-.479-.56-1.13-.837-1.963-.837-.752 0-1.403.26-1.956.785-.547.527-.822 1.21-.822 2.047 0 .838.275 1.526.822 2.053.553.52 1.204.786 1.956.786.797 0 1.468-.266 1.997-.792.35-.348.547-.827.6-1.44h-2.597v-.855h3.464c.042.185.054.364.054.537zM64.122 12.717h-3.254v2.25h2.934v.855h-2.934v2.25h3.254v.872h-4.175v-7.099h4.175zM68.001 18.944h-.92v-6.227h-1.997v-.872h4.915v.872h-1.998v6.227zM73.556 18.944v-7.099h.92v7.099zM78.553 18.944h-.914v-6.227h-2.003v-.872h4.92v.872h-2.003z" fill="#FFF" stroke="#FFF" stroke-width=".625"></path> <path d="M89.862 18.03c-.705.718-1.578 1.076-2.62 1.076-1.049 0-1.922-.358-2.627-1.076-.704-.716-1.054-1.595-1.054-2.636 0-1.04.35-1.92 1.054-2.636.705-.717 1.578-1.076 2.627-1.076 1.036 0 1.91.359 2.614 1.082.71.723 1.06 1.596 1.06 2.63 0 1.04-.35 1.92-1.054 2.636zm-4.566-.595c.53.532 1.176.798 1.946.798.763 0 1.414-.266 1.939-.798.53-.531.798-1.213.798-2.04 0-.828-.269-1.51-.798-2.042-.525-.531-1.176-.797-1.94-.797-.769 0-1.414.266-1.945.797-.53.532-.798 1.214-.798 2.041 0 .828.269 1.51.798 2.041z" fill="#FFF" fill-rule="nonzero" stroke="#FFF" stroke-width=".625"></path> <path d="M92.209 18.944v-7.099h1.118l3.476 5.52h.04l-.04-1.364v-4.156h.92v7.099h-.96l-3.64-5.793h-.04l.04 1.37v4.423h-.914z" fill="#FFF" stroke="#FFF" stroke-width=".625"></path> <path d="M83.334 29.31c-2.801 0-5.09 2.116-5.09 5.036 0 2.897 2.289 5.036 5.09 5.036 2.807 0 5.096-2.14 5.096-5.036 0-2.92-2.289-5.036-5.096-5.036zm0 8.088c-1.537 0-2.86-1.26-2.86-3.052 0-1.816 1.323-3.053 2.86-3.053S86.2 32.53 86.2 34.346c0 1.793-1.328 3.052-2.865 3.052zM72.23 29.31c-2.807 0-5.09 2.116-5.09 5.036 0 2.897 2.283 5.036 5.09 5.036 2.806 0 5.09-2.14 5.09-5.036 0-2.92-2.284-5.036-5.09-5.036zm0 8.088c-1.538 0-2.865-1.26-2.865-3.052 0-1.816 1.327-3.053 2.865-3.053 1.537 0 2.86 1.237 2.86 3.053 0 1.793-1.323 3.052-2.86 3.052zm-13.214-6.544v2.14h5.148c-.15 1.196-.553 2.075-1.17 2.687-.752.74-1.922 1.562-3.978 1.562-3.168 0-5.649-2.538-5.649-5.683 0-3.146 2.481-5.684 5.649-5.684 1.713 0 2.96.665 3.879 1.526l1.52-1.508c-1.287-1.22-2.999-2.157-5.399-2.157-4.344 0-7.995 3.51-7.995 7.823 0 4.312 3.65 7.822 7.995 7.822 2.348 0 4.112-.764 5.498-2.197 1.42-1.41 1.863-3.394 1.863-4.995 0-.497-.041-.955-.116-1.336h-7.245zm54.035 1.659c-.419-1.127-1.711-3.203-4.344-3.203-2.609 0-4.781 2.04-4.781 5.036 0 2.821 2.15 5.036 5.031 5.036 2.33 0 3.675-1.41 4.228-2.232l-1.73-1.144c-.576.837-1.362 1.392-2.498 1.392-1.128 0-1.938-.513-2.457-1.526l6.785-2.787-.234-.572zm-6.917 1.677c-.058-1.942 1.519-2.937 2.649-2.937.885 0 1.637.44 1.887 1.069l-4.536 1.868zm-5.515 4.885h2.23v-14.8h-2.23v14.8zm-3.652-8.643h-.075c-.5-.59-1.456-1.122-2.667-1.122-2.54 0-4.863 2.214-4.863 5.053 0 2.822 2.323 5.019 4.863 5.019 1.21 0 2.166-.538 2.667-1.144h.075v.722c0 1.925-1.036 2.96-2.707 2.96-1.363 0-2.208-.977-2.557-1.798l-1.94.803c.56 1.335 2.04 2.978 4.497 2.978 2.614 0 4.82-1.527 4.82-5.244v-9.043h-2.113v.816zm-2.55 6.966c-1.538 0-2.824-1.277-2.824-3.035 0-1.775 1.286-3.07 2.823-3.07 1.515 0 2.709 1.295 2.709 3.07 0 1.758-1.194 3.035-2.709 3.035zm29.075-13.123h-5.334v14.8h2.225v-5.608h3.11c2.47 0 4.892-1.774 4.892-4.597 0-2.82-2.428-4.595-4.893-4.595zm.059 7.134h-3.168v-5.076h3.168c1.66 0 2.608 1.37 2.608 2.537 0 1.146-.948 2.539-2.608 2.539zm13.75-2.127c-1.608 0-3.28.704-3.966 2.266l1.973.821c.425-.821 1.206-1.088 2.032-1.088 1.154 0 2.324.689 2.342 1.904v.155c-.402-.23-1.264-.573-2.324-.573-2.126 0-4.292 1.162-4.292 3.33 0 1.984 1.741 3.26 3.699 3.26 1.497 0 2.323-.67 2.841-1.45h.076v1.145h2.149v-5.678c0-2.624-1.974-4.092-4.53-4.092zm-.27 8.11c-.727 0-1.74-.358-1.74-1.253 0-1.146 1.264-1.585 2.358-1.585.98 0 1.439.214 2.033.497a2.693 2.693 0 01-2.65 2.341zm12.626-7.786l-2.557 6.416h-.076l-2.643-6.416h-2.398l3.971 8.966-2.266 4.99h2.324l6.12-13.956h-2.475zm-20.05 9.47h2.23V24.274h-2.23v14.8z" fill="#FFF" fill-rule="nonzero"></path> <path d="M1.01 30.035c-.35-.364-.554-.93-.554-1.665V2.185c0-.734.203-1.3.554-1.665l.086-.08 14.78 14.667v.347L1.096 30.12l-.086-.086z" transform="matrix(1 0 0 -1 13.51 42.515)" fill="url(#google-1-a)"></path> <path d="M5.398.855L.478 5.747v.346l4.926 4.892.11-.064 5.835-3.296c1.666-.935 1.666-2.474 0-3.416L5.514.92 5.398.855z" transform="matrix(1 0 0 -1 28.909 33.155)" fill="url(#google-1-b)"></path> <path d="M20.422 10.28l-5.037 5L.519.52c.553-.577 1.455-.647 2.48-.07l17.423 9.83" transform="matrix(1 0 0 -1 14 42.515)" fill="url(#google-1-c)"></path> <path d="M20.422 5.001L3 14.831c-1.025.57-1.927.5-2.48-.076L15.385 0l5.037 5.001z" transform="matrix(1 0 0 -1 14 27.235)" fill="url(#google-1-d)"></path></g></svg>
